# xmcd CD database file
#
# Track frame offsets:
#	150
#	21662
#	35231
#	56439
#	78072
#	114612
#	137450
#	145366
#	165077
#	178960
#
# Disc length: 2600 seconds
#
# Revision: 1
# Processed by: cddbd v1.5.2PL0 Copyright (c) Steve Scherf et al.
# Submitted via: CDex 1.70beta2
#
DISCID=850a260a
DTITLE=Various Artist - Jazzy Christmas
DYEAR=2001
DGENRE=Jazz
TTITLE0=David Benoit and Gregg Bissonette and Brian Bromberg - Santa Claus Is Coming To Town
TTITLE1=David Benoit and Gregg Bissonette and Brian Bromberg - O Tannenbaum
TTITLE2=Ndugu Chancler and Stanley Clark and Patrice Rushen - Christmas Time Is Here
TTITLE3=Ndugu Chancler and Stanley Clark and Patrice Rushen - We Three Kings
TTITLE4=Pete Chrislieb and Charles Harris and Tom Rainer - White Christmas
TTITLE5=Pete Chrislieb and Charles Harris and Tom Rainer - The Christmas Song
TTITLE6=Joe La Barbera and Jim De Julio and Paul Smith - Jingle Bells
TTITLE7=Joe La Barbera and Jim De Julio and Paul Smith - Have Yourself A Merry Little Christmas
TTITLE8=Bob Conti and Alphonso Johnson and Frederico Ramos and Tom Walsh - Little Drummer Boy
TTITLE9=Bob Conti and Alphonso Johnson and Frederico Ramos and Tom Walsh - Let It Snow
EXTD=YEAR: 2001
EXTT0=
EXTT1=
EXTT2=
EXTT3=
EXTT4=
EXTT5=
EXTT6=
EXTT7=
EXTT8=
EXTT9=
PLAYORDER=
